<svg width="79" height="13" viewBox="0 0 79 13" fill="none" xmlns="http://www.w3.org/2000/svg">
<g clip-path="url(#clip0_1_71)">
<mask id="mask0_1_71" style="mask-type:luminance" maskUnits="userSpaceOnUse" x="0" y="0" width="79" height="13">
<path d="M79 0.400108H0V12.6H79V0.400108Z" fill="white"/>
</mask>
<g mask="url(#mask0_1_71)">
<path d="M39.8538 6.6747V1.66961H38.7746V0.619202H42.0155V1.66961H40.9284V6.6747H39.8538Z" fill="#0038B4"/>
<path d="M42.6511 6.67479V2.13236H43.6116V2.53572H43.6277C43.7684 2.32334 43.9079 2.17681 44.0437 2.09778C44.1815 2.01875 44.3541 1.97924 44.5645 1.97924H44.6483V3.03458C44.4282 3.04776 44.2497 3.09386 44.1102 3.17453C43.9728 3.2552 43.868 3.37045 43.8002 3.52192C43.7305 3.67339 43.6971 3.87425 43.6971 4.12121V6.67315H42.6527L42.6511 6.67479Z" fill="#0038B4"/>
<path d="M46.136 1.61693V0.619202H47.1803V1.61693H46.136ZM46.136 6.6747V2.13225H47.1803V6.6747H46.136Z" fill="#0038B4"/>
<path d="M53.3693 2.13234V6.67479H52.4088V6.11172C52.2109 6.33561 51.9913 6.51015 51.7458 6.63524C51.502 6.76038 51.2158 6.82295 50.8881 6.82295C50.4955 6.82295 50.1428 6.72582 49.828 6.5299C49.5128 6.33398 49.2565 6.05079 49.059 5.67706C48.8611 5.30497 48.7615 4.8802 48.7615 4.40272C48.7615 3.92528 48.8579 3.5252 49.0509 3.15311C49.244 2.78102 49.5112 2.4929 49.8534 2.28875C50.1952 2.08459 50.5511 1.98252 50.9232 1.98252C51.1763 1.98252 51.4024 2.02368 51.5987 2.106C51.795 2.18832 51.9643 2.2871 52.1033 2.404C52.2428 2.51925 52.3391 2.62132 52.3931 2.71023H52.4088V2.13563H53.3693V2.13234ZM52.3786 4.39287C52.3786 3.96973 52.2569 3.62728 52.0118 3.3655C51.768 3.10537 51.4624 2.97365 51.0953 2.97365C50.8595 2.97365 50.643 3.03622 50.4451 3.1597C50.2472 3.28318 50.0904 3.46263 49.9768 3.69478C49.8627 3.92857 49.8059 4.17059 49.8059 4.42415C49.8059 4.8209 49.9324 5.15349 50.1839 5.4202C50.4355 5.68691 50.7426 5.82195 51.1033 5.82195C51.4846 5.82195 51.7934 5.68364 52.0259 5.40704C52.2601 5.13043 52.3774 4.7913 52.3774 4.39287H52.3786Z" fill="#0038B4"/>
<path d="M55.1114 6.6747V0.619202H56.1561V6.6747H55.1114Z" fill="#0038B4"/>
<path d="M60.7087 3.37044H59.6881C59.6579 3.22885 59.6075 3.12842 59.5362 3.0675C59.4648 3.00658 59.3778 2.9753 59.2734 2.9753C59.1565 2.9753 59.0597 3.01317 58.984 3.09055C58.9078 3.16793 58.8699 3.26013 58.8699 3.37044C58.8699 3.46099 58.9017 3.53837 58.9618 3.60258C59.0235 3.66679 59.1815 3.73758 59.4382 3.81826C59.8352 3.94668 60.117 4.06193 60.2847 4.16401C60.4523 4.2661 60.5853 4.40931 60.6817 4.59538C60.7784 4.77977 60.8276 4.99875 60.8276 5.24898C60.8276 5.6935 60.6801 6.06727 60.3874 6.37021C60.0948 6.67311 59.7292 6.82295 59.2907 6.82295C59.0251 6.82295 58.7861 6.77355 58.5741 6.67311C58.3637 6.57272 58.1944 6.45253 58.0678 6.30928C57.9408 6.16766 57.8461 6.01292 57.7828 5.84665C57.7196 5.68033 57.6817 5.4795 57.6656 5.24571H58.7369C58.7861 5.45807 58.8574 5.60791 58.9505 5.69517C59.044 5.78077 59.1625 5.82522 59.3052 5.82522C59.4475 5.82522 59.5599 5.78077 59.6486 5.69186C59.7373 5.60296 59.7812 5.4943 59.7812 5.3659C59.7812 5.23745 59.7417 5.13869 59.6611 5.0679C59.5805 4.99707 59.4128 4.91312 59.1565 4.81432C58.7828 4.67606 58.5297 4.56246 58.3967 4.47519C58.2053 4.35005 58.0614 4.20185 57.9662 4.03065C57.8715 3.85942 57.824 3.66185 57.824 3.43794C57.824 3.16628 57.8872 2.91767 58.0138 2.69212C58.1404 2.46656 58.3193 2.29204 58.5519 2.16856C58.7828 2.04508 59.0251 1.98252 59.275 1.98252C59.4999 1.98252 59.7038 2.02862 59.8876 2.11917C60.071 2.20972 60.2198 2.31838 60.3371 2.4468C60.4523 2.57523 60.541 2.71188 60.5994 2.86005C60.6579 3.00823 60.6946 3.17945 60.7071 3.37373L60.7087 3.37044Z" fill="#0038B4"/>
<path d="M15.5379 0.619202H16.6203V4.46521C16.6203 4.73686 16.652 4.96571 16.7168 5.15504C16.7801 5.34275 16.8909 5.48927 17.0476 5.59465C17.2042 5.7 17.3957 5.75271 17.6236 5.75271C17.8515 5.75271 18.0588 5.69509 18.217 5.57817C18.3737 5.46293 18.4876 5.30815 18.5572 5.11718C18.6063 4.9756 18.63 4.75993 18.63 4.46684V0.619202H19.7045V4.46521C19.7045 4.97724 19.6348 5.38883 19.494 5.70331C19.407 5.90087 19.2756 6.08526 19.0984 6.25648C18.9212 6.42774 18.717 6.56273 18.4829 6.65822C18.2486 6.75371 17.9622 6.80147 17.6252 6.80147C17.315 6.80147 17.0444 6.76361 16.8118 6.68619C16.5792 6.60882 16.3814 6.50675 16.22 6.37834C16.0586 6.2499 15.9335 6.11491 15.8433 5.97002C15.7531 5.82677 15.6803 5.63911 15.625 5.40695C15.568 5.17316 15.5411 4.85869 15.5411 4.46357V0.619202H15.5379Z" fill="#0038B4"/>
<path d="M21.5087 6.67479V2.13236H22.4755V2.52749C22.6654 2.33651 22.8537 2.19656 23.042 2.1093C23.2304 2.02369 23.4424 1.97924 23.6766 1.97924C23.9757 1.97924 24.2542 2.05168 24.5106 2.19821C24.7669 2.34474 24.9663 2.5242 25.1087 2.73823C25.2195 2.90287 25.2954 3.10867 25.3398 3.35399C25.3698 3.53015 25.3856 3.81827 25.3856 4.22001V6.67315H24.3365V4.43237C24.3365 4.01914 24.3096 3.71949 24.2558 3.53345C24.1988 3.3474 24.1054 3.20746 23.9757 3.11361C23.8443 3.01977 23.6861 2.97367 23.4994 2.97367C23.2968 2.97367 23.118 3.02964 22.9645 3.13996C22.8094 3.25026 22.7034 3.39679 22.6433 3.5779C22.5816 3.7623 22.5515 4.07347 22.5515 4.51305V6.67479H21.5071H21.5087Z" fill="#0038B4"/>
<path d="M27.1625 1.61693V0.619202H28.2069V1.61693H27.1625ZM27.1625 6.6747V2.13225H28.2069V6.6747H27.1625Z" fill="#0038B4"/>
<path d="M30.253 6.6747V3.09869H29.7419V2.13225H30.253V0.619202H31.3006V2.13225H31.9257V3.09869H31.3006V6.6747H30.253Z" fill="#0038B4"/>
<path d="M34.0796 8.1879L34.8819 6.25007L33.2852 2.13076H34.48L35.4706 5.04325L36.5261 2.13076H37.7129L35.2063 8.18627H34.0812L34.0796 8.1879Z" fill="#0038B4"/>
<path d="M62.0964 6.67462V5.58799H63.1408V6.67462H62.0964Z" fill="#0038B4"/>
<path d="M67.1871 6.82131C66.8804 6.82131 66.5841 6.76038 66.2995 6.63692C66.0146 6.5151 65.7707 6.34551 65.5668 6.13147C65.3624 5.91743 65.2028 5.68528 65.0871 5.43505C64.9352 5.11068 64.861 4.76496 64.861 4.40109C64.861 3.97961 64.9638 3.57789 65.1694 3.19592C65.3753 2.81396 65.6631 2.51596 66.0319 2.30193C66.4007 2.0879 66.7852 1.98088 67.1871 1.98088C67.5889 1.98088 67.9767 2.0879 68.3423 2.30028C68.7078 2.51267 68.9928 2.80902 69.1951 3.1844C69.3979 3.56143 69.499 3.96974 69.499 4.40935C69.499 4.72051 69.4499 5.01355 69.3519 5.28685C69.254 5.56018 69.1194 5.79725 68.9485 5.99975C68.7776 6.20226 68.6018 6.35868 68.4184 6.47064C68.2346 6.58257 68.0367 6.6682 67.8247 6.73077C67.6127 6.79166 67.3991 6.82294 67.1871 6.82294V6.82131ZM67.1871 5.82358C67.5527 5.82358 67.8566 5.68364 68.0956 5.40376C68.3346 5.12389 68.4547 4.79457 68.4547 4.41262C68.4547 4.15743 68.3963 3.91541 68.2774 3.6882C68.1589 3.461 68.0005 3.28483 67.7997 3.16135C67.5986 3.03787 67.3959 2.97531 67.1903 2.97531C66.9847 2.97531 66.782 3.03623 66.5732 3.1597C66.3644 3.28319 66.2012 3.45441 66.0811 3.67503C65.9622 3.89565 65.9021 4.14097 65.9021 4.40935C65.9021 4.67769 65.9606 4.91475 66.0795 5.13705C66.1964 5.35768 66.3564 5.52722 66.5575 5.64577C66.7582 5.76433 66.967 5.82358 67.1855 5.82358H67.1871Z" fill="#0038B4"/>
<path d="M71.1367 6.67479V2.13236H72.0972V2.53572H72.1133C72.254 2.32334 72.393 2.17681 72.5293 2.09778C72.6671 2.01875 72.8396 1.97924 73.05 1.97924H73.1339V3.03458C72.9138 3.04776 72.7352 3.09386 72.5958 3.17453C72.4579 3.2552 72.3535 3.37045 72.2858 3.52192C72.2161 3.67339 72.1826 3.87425 72.1826 4.12121V6.67315H71.1383L71.1367 6.67479Z" fill="#0038B4"/>
<path d="M77.9859 2.13235H79.0004V5.84006C79.0004 6.74063 78.7408 7.43541 78.2201 7.92606C77.7928 8.32612 77.2737 8.52536 76.6647 8.52536C76.2672 8.52536 75.9129 8.45126 75.5994 8.3031C75.2862 8.1549 75.0298 7.96393 74.8303 7.73014C74.6784 7.54902 74.5441 7.31196 74.4236 7.01887H75.6215C75.7674 7.18846 75.9113 7.31028 76.052 7.38274C76.2374 7.47823 76.443 7.52599 76.6707 7.52599C76.8859 7.52599 77.0806 7.48318 77.2563 7.39591C77.4321 7.31028 77.5744 7.20162 77.682 7.07485C77.7912 6.94644 77.8718 6.80814 77.9274 6.65998C77.9827 6.51178 78.0173 6.32903 78.0335 6.11335L78.0173 6.09687C77.6771 6.58094 77.2088 6.82295 76.6123 6.82295C76.231 6.82295 75.8606 6.71593 75.5014 6.50193C75.1423 6.28789 74.8606 5.98822 74.6578 5.60464C74.4555 5.22101 74.3543 4.81105 74.3543 4.37475C74.3543 4.00431 74.4176 3.67668 74.5442 3.39185C74.6707 3.10702 74.8259 2.86994 75.0109 2.67896C75.1959 2.48962 75.397 2.3365 75.6171 2.22126C75.9271 2.06155 76.2499 1.98088 76.5885 1.98088C76.8702 1.98088 77.1314 2.04015 77.372 2.15704C77.6123 2.27394 77.8118 2.4534 77.9702 2.69212H77.9859V2.13235ZM77.9557 4.35827C77.9557 4.18048 77.9162 3.99279 77.8372 3.79851C77.7787 3.65527 77.6949 3.52191 77.5856 3.39843C77.4764 3.2766 77.345 3.17452 77.1898 3.09385C77.0347 3.01482 76.8561 2.97366 76.6501 2.97366C76.3051 2.97366 76.0093 3.10702 75.7658 3.37045C75.522 3.63552 75.3986 3.96974 75.3986 4.37475C75.3986 4.6431 75.4571 4.8901 75.576 5.11563C75.6929 5.3412 75.8557 5.51406 76.0633 5.63755C76.2705 5.75938 76.4825 5.82194 76.7009 5.82194C76.8843 5.82194 77.0524 5.78408 77.2027 5.70671C77.3527 5.62934 77.4825 5.5289 77.5949 5.40376C77.7058 5.27863 77.7944 5.12552 77.8593 4.94604C77.9242 4.7666 77.9573 4.57067 77.9573 4.35664L77.9557 4.35827Z" fill="#0038B4"/>
<path d="M6.33914 10.7923V12.1736C7.12406 12.0732 7.85989 11.8048 8.51027 11.4047C8.47387 11.2648 8.45328 11.1166 8.45328 10.9652C8.45328 10.0464 9.17012 9.29898 10.0547 9.29898C10.2066 9.29898 10.3538 9.32205 10.4946 9.36319C10.8966 8.67171 11.1656 7.88802 11.2653 7.04835H9.93763C9.63695 8.96476 8.18113 10.4795 6.34075 10.7906L6.33914 10.7923Z" fill="#3360C3"/>
<path d="M1.3308 7.04998H0.0015564C0.10125 7.88966 0.370264 8.67498 0.773787 9.36813C0.916205 9.32368 1.06812 9.30062 1.22478 9.30062C2.10936 9.30062 2.82621 10.0464 2.82621 10.9668C2.82621 11.1215 2.80563 11.2714 2.76765 11.413C3.41645 11.8097 4.14752 12.0748 4.92769 12.1753V10.7939C3.08573 10.4811 1.62989 8.96807 1.3308 7.05166V7.04998Z" fill="#6688D2"/>
<path d="M1.16781 3.28145C1.03805 3.28145 0.911457 3.26498 0.789611 3.2337C0.378176 3.93507 0.102832 4.73028 0.0015564 5.58149H1.3308C1.62989 3.66506 3.08414 2.15036 4.92769 1.83919V0.456211C4.13172 0.55829 3.38639 0.83324 2.72809 1.24155C2.755 1.36174 2.76924 1.48686 2.76924 1.61528C2.76924 2.53398 2.05239 3.28145 1.16781 3.28145Z" fill="#011D79"/>
<path d="M10.4028 3.54322C9.51986 3.54322 8.80144 2.79905 8.80144 1.8787C8.80144 1.73218 8.82043 1.58894 8.85364 1.45393C8.12099 0.927084 7.26489 0.574754 6.33914 0.456211V1.83755C8.18113 2.14872 9.63695 3.66341 9.93602 5.57981H11.2653C11.1783 4.84388 10.9599 4.1491 10.6355 3.52346C10.5595 3.53499 10.482 3.54158 10.4028 3.54158V3.54322Z" fill="#0038B4"/>
<path d="M1.05548 2.82513C1.09188 2.83007 1.12986 2.83172 1.16784 2.83172C1.81347 2.83172 2.33726 2.28676 2.33726 1.61667C2.33726 1.5821 2.33726 1.54752 2.33251 1.51295C2.28188 0.88896 1.77866 0.401623 1.16784 0.401623C0.522206 0.399976 0 0.943292 0 1.61667C0 2.24889 0.463653 2.76751 1.05548 2.82678V2.82513Z" fill="#011D79"/>
<path d="M10.3901 3.09558H10.4028C11.0485 3.09558 11.5722 2.55062 11.5722 1.88054C11.5722 1.21045 11.0485 0.663841 10.4028 0.663841C9.79676 0.663841 9.29829 1.14295 9.23973 1.7587C9.23497 1.79821 9.2334 1.83937 9.2334 1.88054C9.2334 2.54733 9.74928 3.09064 10.3901 3.09558Z" fill="#0038B4"/>
<path d="M10.2384 9.76522C10.1783 9.75537 10.1166 9.75042 10.0549 9.75042C9.40921 9.75042 8.88544 10.2954 8.88544 10.9655C8.88544 11.0264 8.89019 11.0856 8.89809 11.1449C8.98197 11.7327 9.46778 12.1821 10.0549 12.1821C10.7005 12.1821 11.2227 11.6389 11.2227 10.9655C11.2227 10.3596 10.7955 9.85744 10.2384 9.76522Z" fill="#3360C3"/>
<path d="M1.2249 9.75042C1.15844 9.75042 1.09198 9.75537 1.02868 9.76686C0.477996 9.86402 0.0570679 10.3645 0.0570679 10.9655C0.0570679 11.6372 0.580853 12.1821 1.2249 12.1821C1.80882 12.1821 2.29305 11.7376 2.38009 11.1532C2.388 11.0922 2.39275 11.0297 2.39275 10.9655C2.39275 10.2937 1.87054 9.75042 1.22332 9.75042H1.2249Z" fill="#6688D2"/>
<path d="M8.51815 5.58794H6.33916V3.31921H5.01147V5.58794H2.83246V6.96766H5.01147V9.23474H6.33916V6.96766H8.51815V5.58794Z" fill="#0038B4"/>
<path d="M20.032 10.9092C19.9275 11.4607 19.5462 11.9299 18.9686 11.9299C18.391 11.9299 18.1409 11.4689 18.3071 10.5453C18.4669 9.64311 18.8926 9.16068 19.4639 9.16068C20.0351 9.16068 20.2646 9.64311 20.1538 10.2177H19.7234C19.7899 9.7929 19.6949 9.57886 19.418 9.57886C19.0951 9.57886 18.853 9.89334 18.7359 10.5568C18.6141 11.2385 18.785 11.5118 19.0762 11.5118C19.399 11.5118 19.5367 11.2055 19.6031 10.9092H20.0335H20.032Z" fill="#6688D2"/>
<path d="M21.1997 9.21025H21.5747L21.1 11.8791H20.7266L21.2013 9.21025H21.1997Z" fill="#6688D2"/>
<path d="M22.4516 9.86385H22.8251L22.4643 11.8791H22.0908L22.4516 9.86385ZM22.5655 9.21188H22.9406L22.871 9.59714H22.4975L22.5672 9.21188H22.5655Z" fill="#6688D2"/>
<path d="M23.7761 9.86364H24.1053C24.0879 9.94596 24.0736 10.0266 24.0562 10.1123C24.1733 9.91799 24.3363 9.82083 24.5689 9.82083C24.887 9.82083 25.0579 10.0053 24.9819 10.4448L24.7256 11.8805H24.3522L24.5848 10.5716C24.6164 10.4103 24.6196 10.211 24.3901 10.211C24.2097 10.211 24.0673 10.3263 24.0198 10.5897L23.7904 11.8805H23.4169L23.7777 9.86528L23.7761 9.86364Z" fill="#6688D2"/>
<path d="M26.0323 9.86385H26.4058L26.045 11.8791H25.6715L26.0323 9.86385ZM26.1463 9.21188H26.5213L26.4517 9.59714H26.0782L26.1478 9.21188H26.1463Z" fill="#6688D2"/>
<path d="M28.392 11.1429C28.305 11.5545 28.0344 11.9217 27.6261 11.9217C27.145 11.9217 26.9504 11.5002 27.0644 10.8729C27.1814 10.2061 27.5423 9.82083 27.9964 9.82083C28.4078 9.82083 28.5502 10.1847 28.4822 10.6062H28.0945C28.1356 10.3033 28.0502 10.188 27.9046 10.188C27.8081 10.188 27.7179 10.2275 27.6419 10.3461C27.5628 10.4646 27.5027 10.6276 27.4615 10.8729C27.3745 11.3553 27.4552 11.5578 27.6625 11.5578C27.835 11.5578 27.9505 11.3816 28.0059 11.1429H28.3936H28.392Z" fill="#6688D2"/>
<path d="M30.3162 11.8789H29.9728C29.9934 11.7702 30.0076 11.6911 30.025 11.6154C29.9 11.8179 29.7481 11.9217 29.544 11.9217C29.18 11.9217 28.9791 11.5611 29.104 10.8729C29.2228 10.2127 29.5171 9.82083 29.919 9.82083C30.0915 9.82083 30.2513 9.89988 30.2893 10.1386C30.3004 10.048 30.313 9.96571 30.3336 9.86528H30.677L30.3162 11.8805V11.8789ZM29.4775 10.8762C29.3984 11.324 29.4775 11.5364 29.6848 11.5364C29.8019 11.5364 29.8716 11.4854 29.9475 11.3965C30.0345 11.2993 30.0693 11.1693 30.1216 10.8729C30.1738 10.5732 30.188 10.4432 30.1358 10.3461C30.0915 10.2588 30.0393 10.2094 29.9206 10.2094C29.7117 10.2094 29.5566 10.4185 29.4775 10.8729V10.8762Z" fill="#6688D2"/>
<path d="M31.7403 9.21025H32.1154L31.6406 11.8791H31.2672L31.7419 9.21025H31.7403Z" fill="#6688D2"/>
<path d="M34.3468 9.61857H33.8831L33.9559 9.21025H35.3073L35.2345 9.61857H34.7709L34.369 11.8791H33.9464L34.3484 9.61857H34.3468Z" fill="#6688D2"/>
<path d="M35.7645 9.86364H36.1078C36.0841 9.98547 36.0667 10.0876 36.0446 10.188C36.1791 9.88176 36.3911 9.82083 36.6126 9.82083L36.5288 10.2934C36.4797 10.2571 36.4275 10.2473 36.3768 10.2473C36.2075 10.2473 36.0366 10.4201 35.9812 10.7412L35.7771 11.8805H35.4037L35.7645 9.86528V9.86364Z" fill="#6688D2"/>
<path d="M37.3739 9.86385H37.7474L37.3866 11.8791H37.0132L37.3739 9.86385ZM37.4879 9.21188H37.8629L37.7933 9.59714H37.4198L37.4895 9.21188H37.4879Z" fill="#6688D2"/>
<path d="M39.6334 11.8789H39.29C39.3106 11.7702 39.3249 11.6911 39.3423 11.6154C39.2172 11.8179 39.0653 11.9217 38.8612 11.9217C38.4973 11.9217 38.2963 11.5611 38.4213 10.8729C38.54 10.2127 38.8343 9.82083 39.2362 9.82083C39.4087 9.82083 39.5686 9.89988 39.6065 10.1386C39.6176 10.048 39.6303 9.96571 39.6509 9.86528H39.9942L39.6334 11.8805V11.8789ZM38.7948 10.8762C38.7156 11.324 38.7948 11.5364 39.0021 11.5364C39.1191 11.5364 39.1888 11.4854 39.2647 11.3965C39.3517 11.2993 39.3866 11.1693 39.4388 10.8729C39.491 10.5732 39.5053 10.4432 39.453 10.3461C39.4087 10.2588 39.3565 10.2094 39.2378 10.2094C39.0289 10.2094 38.8739 10.4185 38.7948 10.8729V10.8762Z" fill="#6688D2"/>
<path d="M41.0574 9.21025H41.4327L40.9579 11.8791H40.5842L41.059 9.21025H41.0574Z" fill="#6688D2"/>
<path d="M43.7781 11.0771C43.737 11.4097 43.8571 11.5381 44.0723 11.5381C44.2876 11.5381 44.4709 11.3867 44.5153 11.1413C44.5677 10.8417 44.2859 10.7742 44.0373 10.6721C43.8015 10.5667 43.5185 10.4169 43.6007 9.95431C43.6846 9.46366 44.0312 9.15414 44.4855 9.15414C44.9393 9.15414 45.1404 9.38134 45.1199 9.88516H44.71C44.7305 9.69087 44.6608 9.52128 44.4363 9.52128C44.2352 9.52128 44.0832 9.67607 44.0437 9.88516C43.9917 10.1733 44.2525 10.2342 44.5294 10.3462C44.7543 10.4465 45.0421 10.6129 44.949 11.1282C44.8619 11.6188 44.4601 11.925 43.9994 11.925C43.4867 11.925 43.2654 11.6254 43.3585 11.0739H43.7781V11.0771Z" fill="#6688D2"/>
<path d="M46.0393 9.86385H46.4129L46.0522 11.8791H45.6785L46.0393 9.86385ZM46.1533 9.21188H46.5282L46.4589 9.59714H46.0852L46.1549 9.21188H46.1533Z" fill="#6688D2"/>
<path d="M48.302 11.8492C48.2609 12.0945 48.1707 12.2707 48.0316 12.3975C47.8889 12.5308 47.7023 12.6 47.4774 12.6C47.1864 12.6 46.8857 12.4189 46.9159 12.0122H47.3065C47.3065 12.0847 47.3242 12.1357 47.3589 12.1703C47.4032 12.2164 47.4665 12.2345 47.5455 12.2345C47.7499 12.2345 47.8857 12.116 47.9413 11.8262L47.976 11.6237C47.8857 11.8147 47.737 11.92 47.5249 11.92C47.0993 11.92 46.9663 11.5265 47.0852 10.8713C47.2037 10.211 47.473 9.81919 47.9002 9.81919C48.0977 9.81919 48.2259 9.89493 48.2924 10.1337C48.3037 10.0481 48.3194 9.96081 48.3367 9.86365H48.6596L48.302 11.8509V11.8492ZM47.4601 10.8762C47.3811 11.324 47.4601 11.5364 47.6676 11.5364C47.7845 11.5364 47.8542 11.4854 47.93 11.3965C48.0171 11.2993 48.0522 11.1693 48.1041 10.8729C48.1565 10.5733 48.1707 10.4432 48.1187 10.3461C48.0743 10.2588 48.0219 10.2094 47.9034 10.2094C47.6942 10.2094 47.5395 10.4185 47.4601 10.8729V10.8762Z" fill="#6688D2"/>
<path d="M49.5665 9.86364H49.8958C49.8784 9.94596 49.8639 10.0266 49.8466 10.1123C49.9655 9.91799 50.1267 9.82083 50.3593 9.82083C50.6773 9.82083 50.8482 10.0053 50.7724 10.4448L50.5161 11.8805H50.1424L50.375 10.5716C50.4068 10.4103 50.4101 10.211 50.1807 10.211C50.0002 10.211 49.8579 10.3263 49.8103 10.5897L49.581 11.8805H49.2073L49.5681 9.86528L49.5665 9.86364Z" fill="#6688D2"/>
<path d="M52.7111 11.8791H52.3677C52.3818 11.7934 52.3992 11.7062 52.4197 11.6124C52.3121 11.8247 52.1493 11.9219 51.9135 11.9219C51.5987 11.9219 51.4246 11.7374 51.5052 11.2979L51.7615 9.86222H52.1352L51.8994 11.1711C51.8724 11.3341 51.8675 11.5349 52.0969 11.5349C52.2742 11.5349 52.4197 11.4164 52.4641 11.153L52.6966 9.86222H53.0719L52.7111 11.8774V11.8791Z" fill="#6688D2"/>
<path d="M53.98 9.86364H54.3234L54.2742 10.1271C54.3818 9.93611 54.537 9.82083 54.7522 9.82083C55.1162 9.82083 55.3141 10.1814 55.192 10.8729C55.0751 11.5298 54.7792 11.9217 54.377 11.9217C54.1936 11.9217 54.0686 11.813 54.0336 11.6484L53.9925 11.8789L53.8707 12.5572H53.4975L53.9784 9.86364H53.98ZM54.8187 10.8696C54.8977 10.4185 54.822 10.2094 54.6112 10.2094C54.5035 10.2094 54.431 10.2604 54.358 10.3461C54.271 10.4432 54.2266 10.5732 54.1746 10.8729C54.1222 11.1693 54.119 11.2977 54.1714 11.3965C54.2125 11.487 54.2682 11.5364 54.3754 11.5364C54.5878 11.5364 54.7393 11.324 54.8187 10.8729V10.8696Z" fill="#6688D2"/>
<path d="M57.2444 11.8791L57.7192 9.21025H58.3459L58.4536 11.1431L59.2307 9.21025H59.857L59.3826 11.8791H59.0041L59.3967 9.67619L58.485 11.8791H58.1561L58.0134 9.67619L57.6212 11.8791H57.2432H57.2444Z" fill="#6688D2"/>
<path d="M61.6075 11.8789H61.2641C61.2846 11.7702 61.2988 11.6911 61.3161 11.6154C61.1911 11.8179 61.0392 11.9217 60.8352 11.9217C60.4713 11.9217 60.2701 11.5611 60.3951 10.8729C60.514 10.2127 60.8082 9.82083 61.2101 9.82083C61.3826 9.82083 61.5426 9.89988 61.5805 10.1386C61.5914 10.048 61.6043 9.96571 61.6248 9.86528H61.9682L61.6075 11.8805V11.8789ZM60.7687 10.8762C60.6897 11.324 60.7687 11.5364 60.9759 11.5364C61.0932 11.5364 61.1625 11.4854 61.2387 11.3965C61.3258 11.2993 61.3604 11.1693 61.4128 10.8729C61.4648 10.5732 61.4793 10.4432 61.4269 10.3461C61.3826 10.2588 61.3306 10.2094 61.2117 10.2094C61.0029 10.2094 60.8477 10.4185 60.7687 10.8729V10.8762Z" fill="#6688D2"/>
<path d="M63.8114 11.8791H63.468C63.489 11.7605 63.5063 11.6732 63.5236 11.5877C63.4334 11.7967 63.2435 11.9235 63.038 11.9235C62.674 11.9235 62.4729 11.563 62.5978 10.8747C62.7167 10.2145 63.011 9.82267 63.4128 9.82267C63.5853 9.82267 63.7103 9.90172 63.7562 10.1141C63.7675 10.0351 63.78 9.95607 63.7973 9.86549L63.9114 9.21352H64.2846L63.8102 11.8823L63.8114 11.8791ZM62.9731 10.8731C62.8937 11.3242 62.9731 11.5333 63.1802 11.5333C63.2971 11.5333 63.3669 11.4823 63.443 11.3966C63.5301 11.2962 63.5648 11.1694 63.6172 10.8698C63.6692 10.5734 63.6833 10.4434 63.6313 10.3462C63.5869 10.2557 63.5345 10.2063 63.416 10.2063C63.2072 10.2063 63.0521 10.4187 62.9731 10.8698V10.8731Z" fill="#6688D2"/>
<path d="M65.1943 11.0063C65.1423 11.2878 65.1883 11.5578 65.4366 11.5578C65.5994 11.5578 65.7308 11.4459 65.8038 11.2516H66.1742C66.0903 11.5035 65.9589 11.678 65.8163 11.7817C65.6708 11.8822 65.5111 11.9217 65.3733 11.9217C64.8574 11.9217 64.7151 11.431 64.8146 10.8729C64.919 10.2736 65.2548 9.82083 65.7437 9.82083C65.9904 9.82083 66.1536 9.9328 66.2358 10.1271C66.3402 10.379 66.2943 10.7033 66.2358 11.0063H65.1931H65.1943ZM65.9223 10.6704C65.9606 10.4399 65.9368 10.1435 65.6865 10.1435C65.4825 10.1435 65.3116 10.3411 65.2532 10.6704H65.9223Z" fill="#6688D2"/>
<path d="M68.8138 9.21025H70.0432L69.9706 9.61857H69.1633L69.0448 10.2936H69.8517L69.7792 10.6969H68.9718L68.8328 11.4724H69.6397L69.5667 11.8807H68.3374L68.8122 9.21188L68.8138 9.21025Z" fill="#6688D2"/>
<path d="M71.7872 11.8789H71.4438C71.4644 11.7702 71.4785 11.6911 71.4958 11.6154C71.3709 11.8179 71.2189 11.9217 71.0149 11.9217C70.651 11.9217 70.4499 11.5611 70.5748 10.8729C70.6937 10.2127 70.9879 9.82083 71.3898 9.82083C71.5623 9.82083 71.7223 9.89988 71.7602 10.1386C71.7711 10.048 71.784 9.96571 71.8045 9.86528H72.148L71.7872 11.8805V11.8789ZM70.9484 10.8762C70.869 11.324 70.9484 11.5364 71.1556 11.5364C71.2729 11.5364 71.3422 11.4854 71.4184 11.3965C71.5055 11.2993 71.5401 11.1693 71.5925 10.8729C71.6445 10.5732 71.659 10.4432 71.6066 10.3461C71.5623 10.2588 71.5099 10.2094 71.3914 10.2094C71.1826 10.2094 71.0274 10.4185 70.9484 10.8729V10.8762Z" fill="#6688D2"/>
<path d="M73.7022 10.4317C73.7336 10.2407 73.6606 10.1584 73.5043 10.1584C73.3761 10.1584 73.2826 10.2456 73.262 10.3675C73.2274 10.5617 73.4248 10.598 73.6356 10.6704C73.8364 10.7429 74.0484 10.8762 73.9758 11.2829C73.9061 11.6533 73.5881 11.9217 73.2161 11.9217C72.8444 11.9217 72.6163 11.7093 72.6655 11.2549H73.0391C73.0121 11.4491 73.1117 11.5693 73.2858 11.5693C73.4599 11.5693 73.5486 11.4475 73.574 11.3092C73.6119 11.1067 73.4172 11.0606 73.2003 10.9816C72.9851 10.9026 72.7953 10.7692 72.865 10.3823C72.9234 10.0547 73.1907 9.81919 73.5816 9.81919C73.9726 9.81919 74.1262 10.0464 74.077 10.4317H73.7022Z" fill="#6688D2"/>
<path d="M75.0218 11.7852L74.8271 9.86385H75.2197L75.316 11.1941L75.8871 9.86385H76.2781L75.0234 12.5574H74.6421L75.0202 11.7852H75.0218Z" fill="#6688D2"/>
</g>
</g>
<defs>
<clipPath id="clip0_1_71">
<rect width="79" height="13" fill="white"/>
</clipPath>
</defs>
</svg>

